<svg xmlns="http://www.w3.org/2000/svg" xmlns:xlink="http://www.w3.org/1999/xlink" width="1366" zoomAndPan="magnify" viewBox="0 0 1024.5 576" height="768" preserveAspectRatio="xMidYMid meet" version="1.0"><defs><g/><clipPath id="2cc8830d96"><path d="M 608 292 L 761 292 L 761 440.652344 L 608 440.652344 Z M 608 292 " clip-rule="nonzero"/></clipPath><clipPath id="c682e9a5c4"><path d="M 263 119.0625 L 850 119.0625 L 850 245 L 263 245 Z M 263 119.0625 " clip-rule="nonzero"/></clipPath></defs><path fill="#f59e0b" d="M 160.898438 229.296875 L 157.054688 229.398438 C 142.449219 229.914062 121.390625 235.921875 93.882812 247.417969 C 71.566406 257.117188 51.695312 270.21875 34.265625 286.722656 C 18.210938 302.109375 8.820312 314.96875 6.089844 325.3125 C 2.03125 336.257812 2.28125 351.351562 6.84375 370.589844 C 7.113281 345.089844 20.125 318.71875 45.871094 291.480469 C 57.742188 279.777344 74.554688 269.152344 96.316406 259.605469 C 103.566406 256.421875 111.367188 253.359375 119.71875 250.417969 L 178.578125 232.25 C 172.210938 230.074219 166.320312 229.089844 160.898438 229.296875 " fill-opacity="1" fill-rule="nonzero"/><path fill="#f59e0b" d="M 41.703125 364.257812 L 42.695312 364.730469 C 45.453125 365.996094 49.054688 367.242188 53.5 368.46875 L 41.703125 364.257812 M 675.207031 268.289062 L 668.949219 268.398438 C 647.328125 269.304688 622.648438 273.515625 594.902344 281.03125 C 579.988281 285.054688 556.242188 291.960938 523.65625 301.757812 C 463.074219 322.144531 408.3125 339.867188 359.378906 354.925781 C 329.570312 364.050781 303.535156 370.5625 281.277344 374.457031 C 231.859375 381.554688 194.511719 384.707031 169.238281 383.914062 C 114.535156 379.703125 75.960938 374.558594 53.511719 368.472656 C 103.800781 388.980469 153.453125 398.75 202.480469 397.78125 C 233.871094 397.71875 291.898438 385.800781 376.558594 362.023438 C 390.898438 357.554688 407.355469 351.972656 425.925781 345.28125 L 529.90625 306.5 C 563.480469 295.011719 585.355469 288.382812 595.53125 286.605469 C 644.894531 274.328125 683.09375 269.746094 710.125 272.863281 C 697.472656 269.496094 685.832031 267.96875 675.207031 268.289062 " fill-opacity="1" fill-rule="nonzero"/><path fill="#f59e0b" d="M 572.546875 306.8125 L 569.953125 306.882812 C 560.226562 308.019531 554.152344 310.105469 551.730469 313.132812 C 551.96875 313.449219 552.277344 313.621094 552.660156 313.65625 C 561.878906 314.347656 567.816406 315.164062 570.464844 316.105469 C 574.878906 317.488281 578.691406 319.648438 581.90625 322.578125 C 584.484375 324.492188 586.492188 328.660156 587.921875 335.070312 C 588.382812 338.886719 587.925781 343.089844 586.550781 347.683594 C 585.351562 351.976562 579.714844 361.789062 569.640625 377.113281 C 565.371094 382.886719 560.765625 388.148438 555.820312 392.898438 C 545.929688 402.394531 534.679688 409.84375 522.070312 415.246094 C 516.097656 417.441406 507.421875 419.082031 496.042969 420.171875 C 488.410156 420.6875 480.558594 420.425781 472.488281 419.382812 C 455.828125 417.117188 438.628906 414.09375 420.890625 410.3125 C 387.375 402.890625 361.417969 396.578125 343.019531 391.378906 L 436.601562 419.535156 L 454.539062 424.550781 C 465.632812 427.421875 475.003906 429.332031 482.648438 430.289062 C 484.640625 430.777344 489.867188 431.003906 498.324219 430.96875 C 505.398438 430.96875 512.339844 430.011719 519.148438 428.101562 C 530.972656 424.097656 539.273438 420.214844 544.050781 416.453125 C 558.472656 404.839844 566.539062 397.875 568.25 395.554688 C 577.539062 386.269531 584.867188 376.988281 590.242188 367.714844 C 595.207031 358.8125 599.035156 349.167969 601.71875 338.773438 C 603.050781 335.914062 602.902344 330.164062 601.273438 321.53125 C 597.820312 311.933594 588.242188 307.027344 572.546875 306.8125 " fill-opacity="1" fill-rule="nonzero"/><path fill="#f59e0b" d="M 186.691406 235.65625 L 186.175781 235.683594 C 174.492188 239.105469 164.292969 244.347656 155.582031 251.417969 C 142.855469 261.347656 130.78125 273.777344 119.347656 288.710938 C 102.414062 311.210938 91.71875 335.410156 87.265625 361.304688 L 99.976562 340.617188 C 103.957031 332.277344 108.507812 324.085938 113.617188 316.042969 C 118.730469 308.003906 124.40625 300.109375 130.644531 292.363281 L 140.429688 280.859375 C 147.230469 273.265625 154.601562 265.816406 162.53125 258.519531 C 170.464844 251.222656 178.960938 244.074219 188.019531 237.074219 C 188.359375 236.242188 187.917969 235.769531 186.691406 235.65625 " fill-opacity="1" fill-rule="nonzero"/><g clip-path="url(#2cc8830d96)"><path fill="#f59e0b" d="M 712.625 292.488281 L 711.902344 292.496094 C 701.851562 293.398438 695.929688 294.417969 694.140625 295.550781 C 690.355469 296.859375 686.707031 298.632812 683.199219 300.867188 C 676.1875 305.335938 669.730469 311.65625 663.832031 319.832031 C 658.472656 326.820312 653.300781 335.457031 648.320312 345.746094 C 640.398438 362.421875 631.566406 386.53125 621.820312 418.078125 C 618.898438 425.058594 614.519531 432.609375 608.675781 440.734375 L 638.554688 405.226562 C 658.234375 371.273438 669.492188 353.191406 672.335938 350.976562 C 681.066406 342.449219 687.195312 337.351562 690.71875 335.691406 C 695.511719 332.875 700.238281 331.183594 704.898438 330.621094 C 718.285156 329.382812 728.660156 335.390625 736.027344 348.652344 C 740.320312 356.289062 744.457031 366.132812 748.445312 378.1875 C 750.78125 386.929688 753.667969 400.234375 757.105469 418.097656 C 758.292969 422.167969 759.089844 423.960938 759.496094 423.476562 C 761.648438 407.429688 760.9375 389.285156 757.363281 369.050781 C 754.671875 350.34375 750.253906 332.636719 744.117188 315.929688 C 742.632812 312.457031 740.960938 309.371094 739.097656 306.667969 C 737.238281 303.96875 735.1875 301.652344 732.949219 299.722656 L 729.449219 297.121094 C 724.59375 294.03125 718.984375 292.488281 712.625 292.488281 " fill-opacity="1" fill-rule="nonzero"/></g><path fill="#f59e0b" d="M 1023.210938 343.320312 C 1023.1875 344.46875 1023.164062 345.414062 1023.144531 346.15625 L 1023.152344 346.78125 L 1023.167969 347.335938 L 1023.1875 347.8125 L 1023.210938 348.21875 L 1023.238281 348.550781 L 1023.273438 348.808594 L 1023.3125 348.992188 L 1023.355469 349.105469 C 1023.390625 349.148438 1023.421875 349.152344 1023.449219 349.117188 L 1023.441406 348.476562 L 1023.425781 347.835938 L 1023.386719 346.546875 L 1023.359375 345.902344 C 1023.34375 345.472656 1023.320312 345.042969 1023.296875 344.613281 C 1023.273438 344.183594 1023.246094 343.75 1023.21875 343.320312 L 1023.210938 343.320312 M 1003.917969 276.695312 L 1003.34375 276.710938 C 1001.070312 276.859375 998.546875 277.71875 995.773438 279.296875 C 993.910156 280.46875 991.945312 282.214844 989.878906 284.53125 C 987.679688 287 985.648438 289.746094 983.792969 292.765625 C 981.332031 296.859375 979.363281 300.953125 977.882812 305.050781 C 977.390625 306.417969 976.953125 307.78125 976.566406 309.148438 C 974.921875 315.375 973.546875 321.265625 972.4375 326.8125 C 971.328125 332.359375 970.488281 337.5625 969.914062 342.429688 C 969.339844 347.296875 969.03125 351.824219 968.992188 356.007812 L 969.132812 362.03125 C 969.359375 365.878906 969.855469 369.382812 970.617188 372.550781 L 978.585938 339.523438 C 980.042969 333.695312 981.617188 328.515625 983.304688 323.984375 C 984.992188 319.449219 986.792969 315.566406 988.710938 312.328125 L 991.671875 307.957031 L 994.804688 304.558594 L 998.113281 302.132812 L 1001.589844 300.675781 L 1005.539062 300.191406 C 1009.273438 301.1875 1012.25 303.414062 1014.46875 306.871094 C 1016.261719 309.558594 1018.140625 315.019531 1020.109375 323.257812 C 1021.738281 330.046875 1022.773438 336.707031 1023.214844 343.246094 C 1023.738281 319.855469 1022.695312 304.554688 1020.085938 297.335938 C 1016.183594 283.558594 1010.796875 276.679688 1003.917969 276.695312 " fill-opacity="1" fill-rule="nonzero"/><path fill="#f59e0b" d="M 657.574219 249.925781 L 659.429688 250.023438 C 664.488281 250.277344 670.488281 250.539062 677.421875 250.804688 C 679.800781 250.96875 681.9375 251.125 683.828125 251.273438 C 685.382812 251.390625 687.367188 251.570312 689.78125 251.808594 C 693.757812 252.289062 696.265625 252.605469 697.308594 252.757812 C 698.929688 252.980469 700.242188 253.179688 701.246094 253.351562 L 697.417969 252.710938 L 693.335938 252.140625 L 689 251.632812 L 684.402344 251.1875 L 679.550781 250.804688 L 674.441406 250.488281 L 669.078125 250.238281 L 663.457031 250.050781 L 657.574219 249.925781 M 701.308594 253.363281 L 701.429688 253.382812 C 701.757812 253.445312 702.085938 253.503906 702.40625 253.566406 C 702.015625 253.488281 701.652344 253.417969 701.308594 253.363281 M 223.195312 237.902344 L 227.265625 239.832031 C 228.25 240.527344 233.433594 242.289062 242.820312 245.113281 C 246.835938 246.203125 251.21875 247.238281 255.976562 248.214844 C 265.394531 250.175781 276.496094 251.910156 289.273438 253.417969 C 292.402344 253.804688 298.429688 254.34375 307.355469 255.035156 C 322.34375 256.175781 337.8125 257.222656 353.753906 258.179688 C 360.746094 258.722656 377.597656 259.308594 404.300781 259.933594 C 416.023438 260.207031 423.726562 260.320312 427.417969 260.273438 C 457.375 259.855469 476.5625 259.484375 484.972656 259.152344 L 557.171875 255.53125 C 563.304688 255.132812 579.355469 253.730469 605.328125 251.316406 C 609.132812 251.035156 612.839844 250.800781 616.445312 250.613281 C 628.992188 249.992188 642.703125 249.761719 657.574219 249.925781 C 652.671875 249.679688 648.164062 249.371094 644.046875 248.996094 C 616.847656 245.472656 598.011719 243.308594 587.539062 242.503906 C 573.953125 241.464844 563.515625 240.773438 556.226562 240.425781 C 553.792969 240.3125 551.714844 240.234375 549.980469 240.195312 L 529.445312 240.011719 C 484.292969 239.804688 444.351562 240.292969 409.617188 241.484375 C 404.582031 241.671875 400.601562 241.851562 397.679688 242.023438 C 371.609375 243.738281 349.03125 245.039062 329.941406 245.921875 C 321.171875 246.464844 314.597656 246.941406 310.222656 247.351562 L 223.195312 237.902344 " fill-opacity="1" fill-rule="nonzero"/><g clip-path="url(#c682e9a5c4)"><path fill="#f59e0b" d="M 574.273438 119.078125 L 572.8125 119.078125 C 537.582031 119.796875 511.410156 121.210938 494.296875 123.324219 C 448.015625 130.492188 418.121094 136.628906 404.609375 141.738281 C 383.304688 148.761719 364.839844 156.722656 349.210938 165.613281 C 319.414062 185.730469 290.828125 204.058594 263.457031 220.597656 L 345.160156 188.042969 C 350.453125 185.222656 362.546875 179.707031 381.445312 171.492188 C 395.683594 165.609375 407.402344 161.6875 416.605469 159.726562 C 423.132812 157.226562 462.941406 154.15625 536.035156 150.519531 C 557.675781 149.992188 584.363281 150.449219 616.105469 151.894531 C 654.480469 153.808594 676.316406 159.363281 681.617188 168.550781 C 684.070312 172.261719 684.945312 177.652344 684.242188 184.722656 L 673.871094 244.714844 C 678.347656 226.4375 688.449219 206.566406 704.179688 185.097656 C 713.25 174.566406 724.046875 168.125 736.566406 165.777344 C 749.359375 163.804688 764.578125 166.164062 782.230469 172.851562 C 803.25 179.964844 825.742188 191.5 849.710938 207.460938 C 834.660156 193.363281 818.5625 180.996094 801.414062 170.351562 C 792.839844 165.027344 784.003906 160.136719 774.90625 155.675781 C 751.703125 145.28125 737.464844 139.5625 732.195312 138.519531 C 706.238281 131.878906 690.25 128.277344 684.226562 127.71875 C 673.050781 125.796875 661.523438 124.199219 649.652344 122.917969 C 625.910156 120.359375 600.785156 119.078125 574.273438 119.078125 " fill-opacity="1" fill-rule="nonzero"/></g><path fill="#f59e0b" d="M 930.460938 223.535156 L 924.03125 223.644531 C 906.585938 224.242188 886.804688 227.214844 864.679688 232.570312 C 844.050781 238.011719 827.421875 242.867188 814.796875 247.128906 C 808.484375 249.261719 803.171875 251.246094 798.859375 253.082031 C 794.542969 254.917969 791.230469 256.609375 788.917969 258.152344 L 786.199219 260.351562 L 889.226562 237.882812 C 897.6875 236.53125 907.464844 235.949219 918.558594 236.128906 C 927.460938 236.34375 936.585938 237.210938 945.933594 238.722656 C 951.335938 239.425781 958.496094 241.03125 967.417969 243.539062 C 975.328125 246.007812 982.984375 249.304688 990.382812 253.433594 C 999.519531 258.953125 1004.925781 262.515625 1006.597656 264.117188 L 1003.496094 256.023438 L 999.085938 248.824219 L 993.375 242.523438 L 986.355469 237.117188 L 978.035156 232.609375 L 968.414062 228.996094 L 957.484375 226.28125 L 945.253906 224.460938 L 931.71875 223.539062 L 930.460938 223.535156 " fill-opacity="1" fill-rule="nonzero"/><path fill="#f59e0b" d="M 534.390625 272.757812 L 520.707031 273.703125 C 502.613281 275.148438 485.113281 277.34375 468.207031 280.289062 C 459.753906 281.761719 451.449219 283.421875 443.292969 285.269531 C 422.953125 290.269531 411.261719 293.410156 408.214844 294.695312 C 400.566406 297.195312 392.363281 300.261719 383.605469 303.898438 C 343.234375 322.320312 316.195312 334.097656 302.484375 339.230469 C 288.347656 344.875 274.082031 348.515625 259.683594 350.148438 L 284.230469 350.933594 C 301.15625 348.128906 312.65625 345.402344 318.742188 342.746094 C 326.679688 340.003906 352.570312 329.652344 396.417969 311.699219 C 416.46875 304.289062 431.761719 298.949219 442.300781 295.675781 C 475.117188 285.5 505.816406 277.859375 534.390625 272.757812 " fill-opacity="1" fill-rule="nonzero"/><path fill="#f59e0b" d="M 124.871094 244.621094 L 87.476562 253.230469 L 63.710938 265.382812 L 43.820312 278.492188 L 27.800781 292.558594 L 15.65625 307.574219 L 7.378906 323.550781 L 2.976562 340.476562 L 2.449219 358.359375 L 5.789062 377.195312 L 13.003906 396.988281 C 11.589844 374.992188 11.644531 361.589844 13.167969 356.785156 C 16.132812 347.609375 19.179688 339.609375 22.3125 332.785156 C 24.535156 327.183594 29.515625 318.457031 37.257812 306.605469 C 47.535156 293.027344 59.015625 281.40625 71.695312 271.734375 C 78.035156 266.898438 84.671875 262.550781 91.613281 258.691406 L 102.25 253.269531 C 109.492188 249.898438 117.03125 247.015625 124.871094 244.621094 " fill-opacity="1" fill-rule="nonzero"/><path fill="#f59e0b" d="M 38.792969 359.597656 L 39.875 362.191406 C 40.8125 363.917969 42.1875 365.628906 44 367.332031 C 44.363281 368.199219 48.066406 370.730469 55.117188 374.929688 C 61.171875 378.191406 69.371094 381.578125 79.722656 385.09375 C 89.933594 388.554688 100.542969 391.4375 111.558594 393.742188 C 117.066406 394.894531 122.675781 395.902344 128.382812 396.765625 L 137.023438 397.949219 C 144.054688 398.792969 148.742188 399.238281 151.089844 399.285156 C 162.046875 399.917969 172.941406 400.023438 183.765625 399.597656 L 197.75 398.839844 L 212.238281 397.578125 L 227.238281 395.8125 C 237.410156 394.464844 247.917969 392.785156 258.761719 390.765625 C 269.609375 388.746094 280.792969 386.390625 292.316406 383.699219 L 309.859375 379.410156 L 240.457031 385.410156 C 222.605469 385.878906 206.253906 385.9375 191.398438 385.585938 C 178.226562 385.28125 165.796875 384.679688 154.105469 383.773438 C 141.046875 382.652344 131.460938 381.660156 125.355469 380.789062 C 119.96875 380.0625 112.730469 378.753906 103.636719 376.867188 C 95.515625 375.1875 83.601562 372.503906 67.898438 368.820312 C 65.78125 368.40625 56.078125 365.332031 38.792969 359.597656 " fill-opacity="1" fill-rule="nonzero"/><path fill="#f59e0b" d="M 562.542969 310.304688 L 559.847656 310.359375 C 552.625 310.652344 545.164062 312.117188 537.457031 314.753906 C 545.464844 315.332031 552.554688 316.664062 558.726562 318.746094 C 561.808594 319.789062 564.664062 321.015625 567.289062 322.433594 C 573.453125 326.308594 576.871094 328.859375 577.554688 330.085938 C 579 331.839844 580.132812 333.683594 580.941406 335.613281 C 581.753906 337.542969 582.242188 339.5625 582.414062 341.664062 L 582.433594 344.886719 C 582.140625 349.269531 580.570312 354.003906 577.71875 359.085938 L 566.851562 372.492188 L 555.851562 384.332031 L 544.71875 394.605469 L 533.457031 403.3125 L 522.066406 410.449219 L 510.542969 416.023438 L 498.886719 420.023438 L 487.101562 422.460938 L 475.183594 423.328125 C 481.207031 425.132812 486.371094 425.949219 490.679688 425.777344 C 504.710938 425.667969 519.699219 420.714844 535.644531 410.921875 C 539.957031 408.519531 549.722656 401.109375 564.941406 388.691406 C 573.835938 380.632812 581.269531 371.9375 587.242188 362.617188 C 591.933594 354.726562 594.554688 349.90625 595.105469 348.160156 C 595.714844 345.761719 596.082031 343.53125 596.203125 341.472656 C 596.449219 337.351562 595.714844 333.910156 594.003906 331.144531 C 593.148438 329.761719 592.050781 328.546875 590.703125 327.503906 L 588.503906 326.0625 L 587.269531 315.363281 C 583.761719 313.863281 580.183594 312.699219 576.539062 311.867188 C 573.84375 311.054688 569.179688 310.535156 562.542969 310.304688 " fill-opacity="1" fill-rule="nonzero"/><path fill="#f59e0b" d="M 594.519531 243.195312 L 587.242188 243.238281 C 567.796875 243.472656 548.027344 244.640625 527.925781 246.742188 L 536.730469 252.023438 C 539.644531 251.839844 548.246094 251.695312 562.535156 251.585938 L 568.160156 251.546875 L 589.902344 251.707031 C 597.003906 251.617188 602.675781 251.585938 606.910156 251.621094 L 645.171875 251.179688 C 647.519531 251.1875 650.664062 251.238281 654.613281 251.324219 C 668.957031 251.746094 679.761719 252.132812 687.019531 252.484375 C 692.71875 252.609375 697.824219 252.742188 702.335938 252.882812 C 703.257812 252.84375 703.609375 252.667969 703.398438 252.359375 C 702.210938 252.105469 700.910156 251.863281 699.496094 251.625 C 695.769531 251.039062 693.402344 250.695312 692.386719 250.59375 C 688.890625 250.160156 684.949219 249.746094 680.558594 249.363281 C 667.769531 248.234375 656.78125 247.339844 647.597656 246.683594 C 627.636719 244.816406 617.203125 243.894531 616.296875 243.917969 C 613.347656 243.695312 609.53125 243.484375 604.839844 243.285156 C 600.644531 243.21875 597.207031 243.1875 594.519531 243.195312 " fill-opacity="1" fill-rule="nonzero"/><path fill="#f59e0b" d="M 18.621094 308.726562 L 16.070312 311.125 C 12.261719 315.289062 10.152344 317.851562 9.742188 318.820312 C 8.554688 320.613281 7.515625 322.460938 6.621094 324.367188 L 5.390625 327.265625 C 4.644531 329.222656 4.042969 331.238281 3.585938 333.3125 C 2.699219 338.128906 2.207031 341.386719 2.105469 343.082031 C 1.773438 346.65625 1.703125 349.867188 1.894531 352.710938 C 1.910156 354.140625 2.328125 357.257812 3.152344 362.058594 C 3.417969 363.488281 3.722656 364.992188 4.066406 366.566406 L 5.828125 372.675781 C 8.070312 380.082031 9.367188 383.84375 9.710938 383.96875 C 7.773438 375.332031 7.292969 366.570312 8.273438 357.679688 L 8.707031 354.335938 L 18.621094 308.726562 " fill-opacity="1" fill-rule="nonzero"/><path fill="#f59e0b" d="M 7.679688 329.535156 L 6.375 332.628906 C 4.753906 336.796875 3.585938 341.144531 2.875 345.671875 L 2.425781 349.101562 L 2.148438 352.601562 L 2.042969 356.164062 L 2.105469 359.796875 L 2.359375 362.269531 C 2.707031 365.457031 3.09375 368.199219 3.511719 370.492188 C 3.722656 371.640625 3.945312 372.675781 4.171875 373.601562 L 4.523438 374.902344 L 9.886719 390.148438 C 10.449219 391.605469 11.640625 394.070312 13.457031 397.542969 C 13.214844 397.136719 12.535156 390.691406 11.421875 378.214844 C 11.050781 372.617188 10.898438 367.121094 10.964844 361.722656 L 11.101562 358.402344 C 11.222656 356.234375 11.402344 354.160156 11.632812 352.175781 C 11.867188 350.195312 12.15625 348.308594 12.5 346.511719 C 13.1875 342.921875 14.097656 339.703125 15.234375 336.855469 L 7.679688 329.535156 M 13.457031 397.554688 L 13.484375 397.660156 L 13.503906 397.753906 L 13.527344 397.832031 L 13.550781 397.902344 L 13.570312 397.957031 L 13.589844 398 L 13.609375 398.03125 L 13.628906 398.050781 L 13.648438 398.054688 C 13.652344 398.054688 13.65625 398.054688 13.660156 398.050781 C 13.660156 398.050781 13.667969 398.046875 13.675781 398.039062 C 13.683594 398.027344 13.691406 398.015625 13.699219 398 L 13.460938 397.554688 L 13.457031 397.554688 " fill-opacity="1" fill-rule="nonzero"/><path fill="#f59e0b" d="M 22.597656 330.355469 L 18.140625 332.574219 C 17.121094 333.917969 16.148438 336.390625 15.226562 339.980469 L 14.542969 342.886719 C 14.09375 344.964844 13.65625 347.324219 13.230469 349.964844 C 12.804688 352.605469 12.394531 355.527344 11.992188 358.730469 C 11.667969 361.15625 11.394531 363.546875 11.171875 365.90625 L 10.875 369.417969 C 10.703125 371.742188 10.585938 374.027344 10.515625 376.28125 C 10.378906 380.789062 10.449219 385.15625 10.722656 389.386719 C 10.6875 388.523438 10.683594 387.429688 10.714844 386.105469 C 10.714844 385.859375 10.90625 383.128906 11.292969 377.910156 C 11.410156 374.167969 11.515625 371.707031 11.609375 370.519531 C 11.890625 366.988281 12.628906 362.347656 13.820312 356.59375 C 15.371094 349.535156 18.296875 340.789062 22.597656 330.355469 M 10.726562 389.535156 L 10.734375 389.691406 C 10.753906 390.097656 10.785156 390.460938 10.820312 390.777344 C 10.804688 390.59375 10.792969 390.410156 10.777344 390.226562 L 10.757812 389.949219 L 10.75 389.8125 L 10.730469 389.535156 L 10.726562 389.535156 " fill-opacity="1" fill-rule="nonzero"/><g fill="#f59e0b" fill-opacity="1"><g transform="translate(752.986263, 395.466648)"><g><path d="M 4.265625 0 L 3.1875 0 L 3.1875 -7.21875 L 1 -6.421875 L 1 -7.40625 L 4.109375 -8.578125 L 4.265625 -8.578125 Z M 4.265625 0 "/></g></g></g></svg>